<?xml version="1.0" standalone="no"?>
<!DOCTYPE svg PUBLIC "-//W3C//DTD SVG 20010904//EN"
 "http://www.w3.org/TR/2001/REC-SVG-20010904/DTD/svg10.dtd">
<svg version="1.0" xmlns="http://www.w3.org/2000/svg"
 width="700.000000pt" height="700.000000pt" viewBox="0 0 700.000000 700.000000"
 preserveAspectRatio="xMidYMid meet">
<metadata>
Created by potrace 1.14, written by Peter Selinger 2001-2017
</metadata>
<g transform="translate(0.000000,700.000000) scale(0.100000,-0.100000)"
fill="#000000" stroke="none">
<path d="M0 3500 l0 -3500 3500 0 3500 0 0 3500 0 3500 -3500 0 -3500 0 0
-3500z m5416 3154 l971 -7 8 -759 c4 -418 4 -762 1 -765 -5 -5 -1123 70 -1398
94 l-68 6 0 -69 c0 -93 -23 -183 -70 -279 -53 -109 -110 -180 -310 -392 -271
-288 -368 -413 -473 -614 -46 -87 -71 -157 -148 -422 -108 -365 -84 -335 -216
-270 -101 49 -193 136 -237 223 -48 96 -60 162 -53 300 8 185 52 328 192 620
110 231 145 354 145 508 0 159 -52 284 -160 392 -293 292 -936 270 -1357 -47
-37 -27 -125 -136 -319 -393 l-269 -355 -78 -39 c-185 -91 -327 -66 -397 70
-22 43 -25 62 -25 149 0 85 4 109 26 160 16 39 156 237 397 565 l372 505 157
86 c842 456 1304 699 1360 713 116 30 206 35 593 30 212 -2 822 -7 1356 -10z
m-2466 -1441 c-162 -192 -205 -263 -266 -440 -68 -198 -158 -334 -251 -378
-35 -17 -126 -17 -163 -1 -10 4 -33 -9 -65 -35 -74 -62 -162 -100 -229 -100
-54 0 -136 27 -150 50 -4 6 110 166 259 361 194 256 280 361 318 389 149 112
356 188 515 190 l63 1 -31 -37z m-304 -1194 c19 -11 42 -32 52 -47 11 -15 284
-601 607 -1302 468 -1014 589 -1285 592 -1326 6 -56 -16 -111 -59 -151 -12
-12 -430 -209 -928 -439 -835 -385 -909 -417 -960 -418 -62 -1 -116 26 -148
72 -10 15 -285 606 -610 1313 -469 1017 -592 1293 -592 1325 1 54 31 116 71
146 29 21 1719 806 1819 845 45 17 112 9 156 -18z"/>
</g>
</svg>
